<svg width="45" height="28" viewBox="0 0 45 28" fill="none" xmlns="http://www.w3.org/2000/svg">
<g clip-path="url(#clip0_174_17)">
<path d="M8.89858 20.571L8.9319 20.13L8.49829 20.043C3.93038 19.1273 0.5 15.1403 0.5 10.3704C0.5 4.92495 4.97128 0.5 10.5 0.5C16.0287 0.5 20.5 4.92495 20.5 10.3704C20.5 11.455 20.1866 12.8745 19.6217 14.4677C19.0596 16.0533 18.2597 17.7793 17.3139 19.4669C15.46 22.7749 13.0837 25.8674 10.9014 27.4729L8.40808 27.0625L8.89858 20.571Z" stroke="white"/>
<path d="M32.8986 20.571L32.9319 20.13L32.4983 20.043C27.9304 19.1273 24.5 15.1403 24.5 10.3704C24.5 4.92495 28.9713 0.5 34.5 0.5C40.0287 0.5 44.5 4.92495 44.5 10.3704C44.5 11.455 44.1866 12.8745 43.6217 14.4677C43.0596 16.0533 42.2597 17.7793 41.3139 19.4669C39.46 22.7749 37.0837 25.8674 34.9014 27.4729L32.4081 27.0625L32.8986 20.571Z" stroke="white"/>
</g>
<defs>
<clipPath id="clip0_174_17">
<rect width="45" height="28" fill="white"/>
</clipPath>
</defs>
</svg>
