<?xml version="1.0" encoding="utf-8"?>
<!-- Generator: Adobe Illustrator 28.2.0, SVG Export Plug-In . SVG Version: 6.00 Build 0)  -->
<svg version="1.1" id="Camada_1" xmlns="http://www.w3.org/2000/svg" xmlns:xlink="http://www.w3.org/1999/xlink" x="0px" y="0px"
	 viewBox="0 0 31.5 31.5" style="enable-background:new 0 0 31.5 31.5;" xml:space="preserve">
<g id="Layer_1_00000091003833764825320870000006103419488931473297_">
</g>
<g id="Layer_1_00000067221263198673404260000003084955034545633416_">
</g>
<g id="Layer_1_00000026862526201671360860000018171181689657282955_">
</g>
<g id="Layer_1_00000134245345943663331790000010026281737358166923_">
</g>
<g>
	<g id="E_-_110_x2C__Collage_x2C__frame_x2C__image_x2C__layout_00000054947768008664293280000005207034390835601847_">
		<g>
			<path d="M30.8,0H0.7C0.3,0,0,0.3,0,0.7v9.2c0,0.4,0.3,0.7,0.7,0.7h30.1c0.4,0,0.7-0.3,0.7-0.7V0.7C31.4,0.3,31.1,0,30.8,0z
				 M30.1,9.2H1.3V1.3h28.8L30.1,9.2L30.1,9.2z"/>
			<path d="M30.8,11.8H16.4c-0.4,0-0.7,0.3-0.7,0.7v18.3c0,0.4,0.3,0.7,0.7,0.7h14.4c0.4,0,0.7-0.3,0.7-0.7V12.5
				C31.4,12.1,31.1,11.8,30.8,11.8z M30.1,30.1H17v-17h13.1V30.1z"/>
			<path d="M13.8,11.8H0.7c-0.4,0-0.7,0.3-0.7,0.7v7.9C0,20.7,0.3,21,0.7,21h13.1c0.4,0,0.7-0.3,0.7-0.7v-7.9
				C14.4,12.1,14.1,11.8,13.8,11.8z M13.1,19.6H1.3v-6.6h11.8V19.6z"/>
			<path d="M13.8,22.3H0.7c-0.4,0-0.7,0.3-0.7,0.7v7.9c0,0.4,0.3,0.7,0.7,0.7h13.1c0.4,0,0.7-0.3,0.7-0.7v-7.9
				C14.4,22.6,14.1,22.3,13.8,22.3z M13.1,30.1H1.3v-6.6h11.8V30.1z"/>
		</g>
	</g>
	<g id="Layer_1_00000008837162159367725120000004287141340626278821_">
	</g>
</g>
</svg>
