<?xml version="1.0" encoding="utf-8"?>
<!-- Generator: Adobe Illustrator 28.2.0, SVG Export Plug-In . SVG Version: 6.00 Build 0)  -->
<svg version="1.1" id="Camada_1" xmlns="http://www.w3.org/2000/svg" xmlns:xlink="http://www.w3.org/1999/xlink" x="0px" y="0px"
	 viewBox="0 0 38.9 34.9" style="enable-background:new 0 0 38.9 34.9;" xml:space="preserve">
<g id="Layer_1_00000091003833764825320870000006103419488931473297_">
</g>
<g id="Layer_1_00000067221263198673404260000003084955034545633416_">
</g>
<g id="Layer_1_00000026862526201671360860000018171181689657282955_">
</g>
<g id="Layer_1_00000134245345943663331790000010026281737358166923_">
</g>
<g id="_x31_18_x2C__Presentation_x2C__solution_x2C__strategy_x2C__business_x2C__man_00000065762841408379906570000009877227841624531630_">
	<g>
		<path d="M8.9,8.1c2.2,0,4.1-1.8,4.1-4.1S11.2,0,8.9,0C6.7,0,4.8,1.9,4.8,4.1S6.7,8.1,8.9,8.1z M8.9,1.7c1.4,0,2.5,1.1,2.5,2.5
			s-1.1,2.5-2.5,2.5S6.5,5.5,6.5,4.1S7.6,1.7,8.9,1.7z"/>
		<path d="M26.1,11.4c-0.3-0.1-0.6,0.1-0.8,0.3l-3,3.8H21c-0.5,0-0.8,0.4-0.8,0.8c0,0.5,0.4,0.8,0.8,0.8c2.5,0,13.5,0,13.8,0
			c0.5,0,0.8-0.4,0.8-0.8V6.6c0-0.4-0.4-0.8-0.8-0.8H19.4c-0.5,0-0.8,0.4-0.8,0.8c0,0.4,0.4,0.8,0.8,0.8H34v8.1h-9.6l1.9-2.3
			l2.7,0.7c0.3,0.1,0.7-0.1,0.8-0.3l1.2-1.8l0.1,0.6c0.1,0.4,0.5,0.8,0.9,0.7c0.5-0.1,0.8-0.4,0.7-0.9l-0.3-2.4
			c-0.1-0.4-0.5-0.8-0.9-0.7L29,9.4c-0.5,0.1-0.8,0.4-0.7,0.9c0.1,0.4,0.5,0.8,0.9,0.7l0.4-0.1l-0.8,1.2L26.1,11.4z"/>
		<path d="M38,2.5H15.4c-0.4,0-0.8,0.4-0.8,0.8v2.5c0,0.4,0.4,0.8,0.8,0.8s0.8-0.4,0.8-0.8V4.2h21v14.6h-21c-0.4,0-0.8,0.4-0.8,0.8
			s0.4,0.8,0.8,0.8h21.9c0.5,0,0.8-0.4,0.8-0.8V3.4C38.8,2.8,38.4,2.5,38,2.5z"/>
		<path d="M36.4,33.3H13.8V13h4.8c1.8,0,3.2-1.4,3.2-3.2c0-0.4-0.4-0.8-0.8-0.8H4.8c-1.8,0-3.2,1.4-3.2,3.2v9.7c0,1.5,1,2.8,2.5,3.1
			v8.2H0.8C0.4,33.2,0,33.6,0,34s0.4,0.8,0.8,0.8c1.2,0,33.8,0,35.6,0c0.5,0,0.8-0.4,0.8-0.8C37.2,33.6,36.8,33.3,36.4,33.3z
			 M9.7,33.3v-8.9c0-0.5-0.4-0.8-0.8-0.8s-0.8,0.4-0.8,0.8v8.9H5.6c0-0.1,0-18.7,0-19.4c0-0.4-0.4-0.8-0.8-0.8C4.3,13,4,13.4,4,13.8
			v9.5c-0.5-0.3-0.8-0.8-0.8-1.4v-9.7c0-0.9,0.7-1.6,1.6-1.6h15.1c-0.3,0.4-0.8,0.8-1.4,0.8h-5.7c-0.4,0-0.8,0.4-0.8,0.8v21
			L9.7,33.3L9.7,33.3L9.7,33.3z"/>
		<path d="M38,30.8H25.1c-0.5,0-0.8,0.4-0.8,0.8s0.4,0.8,0.8,0.8H38c0.5,0,0.8-0.4,0.8-0.8C38.8,31.2,38.4,30.8,38,30.8z"/>
		<path d="M38,28.4H25.1c-0.5,0-0.8,0.4-0.8,0.8s0.4,0.8,0.8,0.8H38c0.5,0,0.8-0.4,0.8-0.8C38.8,28.7,38.4,28.4,38,28.4z"/>
		<path d="M25.1,27.6H30c0.5,0,0.8-0.4,0.8-0.8s-0.4-0.8-0.8-0.8h-4.9c-0.5,0-0.8,0.4-0.8,0.8C24.3,27.2,24.6,27.6,25.1,27.6z"/>
	</g>
</g>
</svg>
