<?xml version="1.0" encoding="utf-8"?>
<!-- Generator: Adobe Illustrator 28.2.0, SVG Export Plug-In . SVG Version: 6.00 Build 0)  -->
<svg version="1.1" id="Camada_1" xmlns="http://www.w3.org/2000/svg" xmlns:xlink="http://www.w3.org/1999/xlink" x="0px" y="0px"
	 viewBox="0 0 37.7 37.5" style="enable-background:new 0 0 37.7 37.5;" xml:space="preserve">
<g id="Layer_1_00000091003833764825320870000006103419488931473297_">
</g>
<g id="Layer_1_00000067221263198673404260000003084955034545633416_">
</g>
<g id="Layer_1_00000026862526201671360860000018171181689657282955_">
</g>
<g id="Layer_1_00000134245345943663331790000010026281737358166923_">
</g>
<g>
	<path d="M32.5,19.5c-0.2,0.6-0.4,1.2-0.6,1.8c-0.3,0.8-0.6,1.5-0.9,2.2c-0.7,1.4-1.5,2.8-2.5,4.1c-1,1.3-2,2.5-3.2,3.6
		s-2.5,2.1-3.9,2.9c-1.3,0.8-2.7,1.5-4.1,2.1c-1.4-0.5-2.8-1.2-4.1-2.1c-1.4-0.8-2.7-1.8-3.9-2.9C8.1,30.2,7,28.9,6,27.7
		c-1-1.3-1.8-2.7-2.5-4.1c-0.7-1.4-1.2-2.9-1.6-4.5c-0.4-1.5-0.6-3.1-0.7-4.7c-0.1-1.6,0-3.2,0.1-4.8c0.2-1.4,0.5-2.8,0.9-4.1
		c1.2,0.2,2.4,0.4,3.7,0.3c1.4,0,2.9-0.2,4.3-0.6c1.4-0.4,2.8-0.9,4-1.6c1.1-0.6,2.1-1.3,3-2.2c0.9,0.8,1.9,1.5,3,2.2
		c0.7,0.4,1.4,0.7,2.1,1c0.5-0.2,1.1-0.4,1.8-0.6c-1.2-0.3-2.3-0.8-3.3-1.4c-1.2-0.7-2.2-1.5-3.1-2.3C17.6,0.1,17.4,0,17.3,0
		S17,0.1,16.9,0.2c-0.9,0.9-1.9,1.7-3.1,2.3C12.6,3.2,11.3,3.7,10,4C7.3,4.8,4.4,4.8,2,4.2C1.7,4.1,1.4,4.3,1.3,4.6
		C0.8,6.1,0.4,7.8,0.2,9.4c-0.2,1.6-0.3,3.3-0.2,5c0.1,1.7,0.4,3.3,0.8,4.9c0.4,1.6,1,3.2,1.7,4.7c0.7,1.5,1.6,3,2.6,4.3
		c1,1.4,2.1,2.6,3.4,3.8c1.2,1.2,2.6,2.2,4,3.1c1.4,0.9,3,1.7,4.5,2.2c0.1,0,0.1,0,0.2,0s0.1,0,0.2,0c1.6-0.6,3.1-1.3,4.5-2.2
		c1.4-0.9,2.8-1.9,4-3.1c1.2-1.1,2.4-2.4,3.4-3.8c0.5-0.7,1-1.4,1.4-2.1c0.4-0.7,0.8-1.5,1.2-2.2c0.7-1.5,1.3-3.1,1.7-4.7
		c0.1-0.4,0.2-0.7,0.2-1.1C33.5,18.7,33,19.1,32.5,19.5z"/>
	<path d="M30.4,20.7c-0.2,0.7-0.5,1.4-0.9,2.1c-0.6,1.4-1.4,2.6-2.3,3.9c-0.9,1.2-1.9,2.3-3,3.4c-1.1,1-2.3,2-3.6,2.7
		c-1,0.7-2.1,1.2-3.3,1.7c-1.1-0.5-2.2-1-3.3-1.7c-1.3-0.8-2.5-1.7-3.6-2.7s-2.1-2.2-3-3.4c-0.9-1.2-1.7-2.5-2.3-3.9
		c-0.6-1.3-1.1-2.7-1.5-4.2c-0.4-1.4-0.6-2.9-0.7-4.4c-0.1-1.5,0-3,0.1-4.4c0.1-0.8,0.2-1.7,0.5-2.5c0.7,0.1,1.4,0.1,2.1,0.1
		c2.4,0,4.9-0.5,7.2-1.3c1.7-0.6,3.2-1.5,4.5-2.5c1,0.8,2.1,1.4,3.2,2c0.2-0.2,0.5-0.3,0.7-0.4c-1.4-0.6-2.6-1.4-3.7-2.2
		c-0.1-0.1-0.3-0.1-0.4,0c-1.3,1.1-2.9,1.9-4.6,2.6c-2.2,0.8-4.6,1.3-6.9,1.3C4.8,6.7,4,6.7,3.2,6.6C3,6.5,2.9,6.7,2.8,6.8
		C2.6,7.8,2.4,8.7,2.3,9.7c-0.2,1.5-0.2,3.1-0.1,4.6s0.3,3.1,0.7,4.5c0.4,1.5,0.9,2.9,1.5,4.3c0.7,1.4,1.5,2.7,2.4,4
		c0.9,1.2,2,2.4,3.1,3.5s2.4,2,3.7,2.8c1.1,0.7,2.3,1.3,3.5,1.8c0,0,0.1,0,0.1,0s0.1,0,0.1,0c1.2-0.5,2.4-1.1,3.5-1.8
		c1.3-0.8,2.6-1.8,3.7-2.8s2.2-2.2,3.1-3.5c0.9-1.3,1.7-2.6,2.4-4c0.4-0.9,0.8-1.9,1.1-2.8C31,20.5,30.7,20.6,30.4,20.7z"/>
	<g>
		<path d="M10.6,20.5c2.1,1.5,4,3.3,5.5,5.3c0.5-0.9,1.1-1.8,1.7-2.7c2.5-3.9,5.5-7.5,9-10.5c-3.1,1.1-7.2,6.2-7.2,6.2
			c-1.5-1.7-1.9-3.8-2-5.7s0.4-3.8,1.5-5.3c1.3-1.8,3.5-2.7,5.6-3.2s4.4-0.7,6.5-1.3c2.1-0.5,4.1-1.5,5.4-3.2c1,3.4,1.3,7,0.5,10.4
			c-0.8,3.5-3,6.8-6.1,8.7c-2.9,1.7-6.6,2.1-9.7,0.7c-1.6,2.6-3.1,5.3-4.4,8c-0.2,0.5-0.9,0.6-1.3,0.2c-2.5-2.6-5.6-4.2-6.7-4.8
			c-0.3-0.1-0.5-0.5-0.5-0.8c0.1-1.1,0.7-1.8,1.1-2.1C9.9,20.2,10.4,20.2,10.6,20.5z"/>
	</g>
</g>
</svg>
