<?xml version="1.0" encoding="utf-8"?>
<!-- Generator: Adobe Illustrator 28.2.0, SVG Export Plug-In . SVG Version: 6.00 Build 0)  -->
<svg version="1.1" id="Camada_1" xmlns="http://www.w3.org/2000/svg" xmlns:xlink="http://www.w3.org/1999/xlink" x="0px" y="0px"
	 viewBox="0 0 32.6 33.9" style="enable-background:new 0 0 32.6 33.9;" xml:space="preserve">
<g id="Layer_1_00000091003833764825320870000006103419488931473297_">
</g>
<g id="Layer_1_00000067221263198673404260000003084955034545633416_">
</g>
<g id="Layer_1_00000026862526201671360860000018171181689657282955_">
</g>
<g id="Layer_1_00000134245345943663331790000010026281737358166923_">
</g>
<g id="_x31_19_x2C__chat_x2C__communication_x2C__support_x2C__user_x2C__man_00000103227874796095525130000017547294632056018583_">
	<g>
		<path d="M29.9,0H17.5c-1.4,0-2.6,1.2-2.6,2.6V3H4C2.6,3,1.4,4.2,1.4,5.6v9.8c0,1.4,1.2,2.6,2.6,2.6h2.1l5.5,3.7
			c0.1,0.1,0.3,0.1,0.4,0.1c0.4,0,0.7-0.3,0.7-0.7V18h7.1c-0.7,1.8-0.2,3.8,1.3,5c-2.4,1-4.1,3.4-4.1,6.2v3.9c0,0.4,0.3,0.7,0.7,0.7
			h12c0.4,0,0.7-0.3,0.7-0.7v-3.9c0-2.8-1.7-5.2-4.1-6.2c1-0.8,1.6-2,1.6-3.3c0-1.9-1.2-3.6-3-4.1c0-0.2,0,0,0-3.7h5
			c1.4,0,2.6-1.2,2.6-2.6V2.6C32.5,1.2,31.3,0,29.9,0z M29,29.3v3.2h-2.1v-3.6c0-0.4-0.3-0.7-0.7-0.7c-0.4,0-0.7,0.3-0.7,0.7v3.6
			h-3.6v-3.6c0-0.4-0.3-0.7-0.7-0.7c-0.4,0-0.6,0.4-0.6,0.8v3.5h-2.1v-3.2c0-2.9,2.4-5.3,5.3-5.3C26.6,24,29,26.4,29,29.3z
			 M26.5,19.8c0,1.6-1.2,2.8-2.8,2.8s-2.8-1.2-2.8-2.8c0-1.7,1.5-3,3.1-2.8C25.4,17.1,26.5,18.3,26.5,19.8z M23.5,15.5
			c-1,0.1-2,0.4-2.7,1.1H12c-0.4,0-0.7,0.3-0.7,0.7v2.5l-4.6-3c-0.1-0.1-0.2-0.1-0.4-0.1H4c-0.6,0-1.2-0.5-1.2-1.2V5.7
			C2.8,5,3.3,4.5,4,4.5h10.9v4.9c0,1.4,1.2,2.6,2.6,2.6h1v2.1c0,0.6,0.6,0.9,1.1,0.6c0.1-0.1-0.1,0.1,3.4-2.7h0.6
			C23.5,16,23.5,15.5,23.5,15.5z M31.1,9.4c0,0.7-0.5,1.2-1.2,1.2c-0.8,0-6.3,0-7.3,0c-0.2,0-0.3,0.1-0.5,0.2l-2.4,1.9v-1.4
			c0-0.4-0.3-0.7-0.7-0.7h-1.6c-0.7,0-1.2-0.5-1.2-1.2c0-0.8,0-6,0-6.8c0-0.7,0.5-1.2,1.2-1.2h12.5c0.7,0,1.2,0.5,1.2,1.2L31.1,9.4
			L31.1,9.4z"/>
		<path d="M12,7.8c0.4,0,0.7-0.3,0.7-0.7S12.4,6.3,12,6.3H4.3c-0.4,0-0.7,0.3-0.7,0.7c0,0.4,0.3,0.7,0.7,0.7H12z"/>
		<path d="M13.4,9.9c0-0.4-0.3-0.7-0.7-0.7h-5C7.3,9.1,7,9.5,7,9.9c0,0.4,0.3,0.7,0.7,0.7h5C13.1,10.6,13.4,10.3,13.4,9.9z"/>
		<path d="M9.9,12H5c-0.4,0-0.7,0.3-0.7,0.7s0.3,0.7,0.7,0.7h5c0.4,0,0.7-0.3,0.7-0.7C10.6,12.3,10.3,12,9.9,12z"/>
		<path d="M15.6,12h-2.8c-0.4,0-0.7,0.3-0.7,0.7s0.3,0.7,0.7,0.7h2.8c0.4,0,0.7-0.3,0.7-0.7C16.3,12.3,15.9,12,15.6,12z"/>
		<path d="M28.3,2.8h-9.2c-0.4,0-0.7,0.3-0.7,0.7c0,0.4,0.3,0.7,0.7,0.7h9.2c0.4,0,0.7-0.3,0.7-0.7C29,3.2,28.6,2.8,28.3,2.8z"/>
		<path d="M28.3,7.1h-9.2c-0.4,0-0.7,0.3-0.7,0.7c0,0.4,0.3,0.7,0.7,0.7h9.2c0.4,0,0.7-0.3,0.7-0.7C29,7.4,28.6,7.1,28.3,7.1z"/>
		<path d="M28.3,5h-5c-0.4,0-0.7,0.3-0.7,0.7c0,0.4,0.3,0.7,0.7,0.7h5c0.4,0,0.7-0.3,0.7-0.7C29,5.2,28.6,5,28.3,5z"/>
		<path d="M14.9,26.1H5c-0.4,0-0.7,0.3-0.7,0.7c0,0.4,0.3,0.7,0.7,0.7h9.9c0.4,0,0.7-0.3,0.7-0.7C15.6,26.4,15.2,26.1,14.9,26.1z"/>
		<path d="M14.9,28.2H0.7C0.3,28.2,0,28.6,0,29c0,0.4,0.3,0.7,0.7,0.7h14.1c0.4,0,0.7-0.3,0.7-0.7S15.2,28.2,14.9,28.2z"/>
		<path d="M14.9,30.4H5c-0.4,0-0.7,0.3-0.7,0.7c0,0.4,0.3,0.7,0.7,0.7h9.9c0.4,0,0.7-0.3,0.7-0.7C15.6,30.7,15.2,30.4,14.9,30.4z"/>
		<path d="M14.9,32.5H0.7c-0.4,0-0.7,0.3-0.7,0.7c0,0.4,0.3,0.7,0.7,0.7h14.1c0.4,0,0.7-0.3,0.7-0.7S15.2,32.5,14.9,32.5z"/>
	</g>
</g>
</svg>
