<?xml version="1.0" encoding="utf-8"?>
<!-- Generator: Adobe Illustrator 28.2.0, SVG Export Plug-In . SVG Version: 6.00 Build 0)  -->
<svg version="1.1" id="Camada_1" xmlns="http://www.w3.org/2000/svg" xmlns:xlink="http://www.w3.org/1999/xlink" x="0px" y="0px"
	 viewBox="0 0 25.2 39.3" style="enable-background:new 0 0 25.2 39.3;" xml:space="preserve">
<g id="Layer_1_00000091003833764825320870000006103419488931473297_">
</g>
<g id="Layer_1_00000067221263198673404260000003084955034545633416_">
</g>
<g id="Layer_1_00000026862526201671360860000018171181689657282955_">
</g>
<g id="Layer_1_00000134245345943663331790000010026281737358166923_">
</g>
<g>
	<path d="M10.6,15.7c-0.1,0-0.3-0.1-0.4-0.2l-2.3-2.3c-0.2-0.2-0.2-0.6,0-0.8c0.2-0.2,0.6-0.2,0.8,0l1.9,1.9l6-6
		c0.2-0.2,0.6-0.2,0.8,0c0.2,0.2,0.2,0.6,0,0.8l-6.4,6.4C10.8,15.6,10.7,15.7,10.6,15.7z"/>
	<path d="M12.6,20.3c-1.1,0-2.2-0.2-3.3-0.7c-1-0.4-1.9-1-2.7-1.8c-0.8-0.8-1.4-1.7-1.8-2.7c-0.4-1-0.7-2.1-0.7-3.3s0.2-2.2,0.7-3.3
		c0.4-1,1-1.9,1.8-2.7c0.8-0.8,1.7-1.4,2.7-1.8c1-0.4,2.1-0.7,3.3-0.7s2.2,0.2,3.3,0.7c1,0.4,1.9,1,2.7,1.8c0.8,0.8,1.4,1.7,1.8,2.7
		c0.4,1,0.7,2.1,0.7,3.3s-0.2,2.2-0.7,3.3c-0.4,1-1,1.9-1.8,2.7c-0.8,0.8-1.7,1.4-2.7,1.8C14.8,20.1,13.7,20.3,12.6,20.3z M12.6,4.6
		c-4,0-7.3,3.3-7.3,7.3s3.3,7.3,7.3,7.3s7.3-3.3,7.3-7.3S16.6,4.6,12.6,4.6z"/>
	<path d="M5.9,39.3c-0.1,0-0.1,0-0.2,0c-0.2-0.1-0.4-0.3-0.3-0.5c0.1-1.6,0-3.2-0.1-4.8c-1.5,0.4-3.1,0.7-4.6,0.9
		c-0.2,0-0.4-0.1-0.6-0.3S0,34.1,0.1,33.9c3.2-3.8,5.4-8.4,6.3-13.3c0.1-0.3,0.3-0.5,0.7-0.4s0.5,0.4,0.4,0.6
		c-0.9,4.6-2.8,9-5.7,12.7c1.2-0.2,2.5-0.5,3.7-0.8c0.2,0,0.3,0,0.5,0.1s0.2,0.2,0.2,0.4c0.2,1.3,0.3,2.7,0.3,4
		c2.4-3.1,4.3-6.6,5.6-10.4c0.1-0.3,0.4-0.5,0.7-0.4s0.4,0.4,0.4,0.7c-0.7,2.2-1.7,4.3-2.8,6.3c-1.1,2-2.5,4-4,5.7
		C6.2,39.2,6.1,39.3,5.9,39.3z"/>
	<path d="M19.3,39.3c-0.2,0-0.3-0.1-0.4-0.2c-1.5-1.8-2.8-3.7-4-5.7c-1.1-2-2.1-4.1-2.8-6.3c-0.2-0.7-0.5-1.5-0.7-2.2
		c-0.1-0.2-0.1-0.5-0.3-0.9c-0.2-0.5-0.3-1.1-0.4-1.4c-0.1-0.3,0.1-0.6,0.4-0.7s0.6,0.1,0.7,0.4c0.1,0.3,0.2,0.8,0.4,1.3
		c0.1,0.4,0.2,0.7,0.3,0.9c0.2,0.7,0.4,1.5,0.6,2.2c1.3,3.8,3.1,7.3,5.6,10.4c0-1.3,0.1-2.7,0.3-4c0-0.2,0.1-0.3,0.2-0.4
		s0.3-0.1,0.5-0.1c1.2,0.4,2.4,0.6,3.7,0.8c-2.9-3.7-4.8-8.1-5.7-12.7c-0.1-0.3,0.1-0.6,0.4-0.6c0.3-0.1,0.6,0.1,0.6,0.4
		c0.9,4.9,3.1,9.5,6.3,13.3c0.1,0.2,0.2,0.4,0.1,0.6c-0.1,0.2-0.3,0.3-0.5,0.3c-1.5-0.2-3.1-0.5-4.6-0.9c-0.2,1.6-0.2,3.2-0.1,4.8
		c0,0.2-0.1,0.5-0.4,0.5C19.4,39.3,19.3,39.3,19.3,39.3z"/>
	<path d="M12.6,23.8c-0.8,0-1.2-0.4-1.5-0.7c-0.2-0.2-0.4-0.4-0.7-0.4c-0.3-0.1-0.5,0-0.8,0.1C9.3,23,8.8,23.2,8,22.9
		c-0.8-0.3-0.9-0.8-1.1-1.2c-0.1-0.3-0.2-0.5-0.4-0.7S6,20.9,5.7,20.9c-0.4,0-1,0-1.6-0.5c-0.6-0.6-0.5-1.1-0.5-1.5
		c0-0.3,0-0.5-0.2-0.8s-0.4-0.3-0.7-0.5c-0.4-0.1-0.9-0.3-1.2-1.1s-0.1-1.3,0.1-1.6c0.1-0.3,0.2-0.5,0.1-0.8
		c-0.1-0.3-0.2-0.5-0.4-0.7c-0.3-0.3-0.7-0.7-0.7-1.5s0.4-1.2,0.7-1.5c0.2-0.2,0.4-0.4,0.4-0.7c0.1-0.3,0-0.5-0.1-0.8
		C1.5,8.6,1.3,8.1,1.6,7.4c0.3-0.8,0.8-1,1.2-1.1c0.3-0.1,0.5-0.2,0.7-0.4s0.2-0.5,0.2-0.8c0-0.4-0.1-1,0.5-1.6S5.3,2.9,5.7,3
		C6,3,6.2,3,6.5,2.8s0.3-0.4,0.4-0.7C7.1,1.7,7.3,1.2,8,0.9C8.8,0.6,9.3,0.8,9.6,1c0.3,0.1,0.5,0.2,0.8,0.1c0.3-0.1,0.5-0.2,0.7-0.4
		C11.4,0.4,11.8,0,12.6,0c0.8,0,1.2,0.4,1.5,0.7c0.2,0.2,0.4,0.4,0.7,0.4c0.3,0.1,0.5,0,0.8-0.1c0.3-0.2,0.8-0.4,1.5-0.2
		c0.8,0.2,1,0.8,1.2,1.2c0.1,0.3,0.2,0.5,0.5,0.7C18.9,3,19.1,3,19.5,3c0.4,0,1,0,1.5,0.5s0.5,1.1,0.5,1.5c0,0.3,0,0.5,0.2,0.8
		c0.2,0.3,0.4,0.3,0.7,0.4c0.4,0.1,0.9,0.3,1.2,1.1s0.1,1.3-0.1,1.6c-0.1,0.3-0.2,0.5-0.1,0.8c0.1,0.3,0.2,0.5,0.4,0.7
		c0.3,0.3,0.7,0.7,0.7,1.5s-0.4,1.2-0.7,1.5c-0.2,0.2-0.4,0.4-0.4,0.7c-0.1,0.3,0,0.5,0.1,0.8c0.2,0.4,0.4,0.9,0.1,1.6
		c-0.3,0.8-0.8,0.9-1.2,1.1c-0.3,0.1-0.5,0.2-0.7,0.5s-0.2,0.5-0.2,0.8c0,0.4,0,1-0.5,1.5c-0.6,0.6-1.1,0.5-1.5,0.5
		c-0.3,0-0.5,0-0.8,0.2s-0.3,0.4-0.5,0.7c-0.1,0.4-0.3,0.9-1.1,1.2s-1.3,0.1-1.6-0.1c-0.3-0.1-0.5-0.2-0.8-0.1
		c-0.3,0.1-0.5,0.2-0.7,0.4C13.8,23.4,13.4,23.8,12.6,23.8z M10.2,21.5c0.1,0,0.3,0,0.4,0c0.7,0.1,1,0.5,1.3,0.8
		c0.2,0.2,0.3,0.4,0.6,0.4s0.4-0.1,0.6-0.4c0.2-0.3,0.6-0.6,1.3-0.8c0.7-0.1,1.1,0.1,1.5,0.2c0.3,0.1,0.4,0.2,0.7,0.1
		c0.3-0.1,0.4-0.3,0.5-0.6c0.1-0.4,0.3-0.8,0.9-1.2c0.6-0.4,1.1-0.4,1.5-0.3c0.3,0,0.5,0,0.7-0.2s0.2-0.4,0.2-0.7
		c0-0.4,0-0.9,0.3-1.5c0.4-0.6,0.9-0.8,1.2-0.9c0.3-0.1,0.5-0.2,0.6-0.5c0.1-0.3,0.1-0.4-0.1-0.7c-0.2-0.3-0.4-0.8-0.2-1.5
		c0.1-0.7,0.5-1,0.8-1.3c0.2-0.2,0.4-0.3,0.4-0.6s-0.1-0.4-0.4-0.6c-0.3-0.2-0.6-0.6-0.8-1.3c-0.1-0.7,0.1-1.1,0.2-1.5
		c0.1-0.3,0.2-0.4,0.1-0.7c-0.1-0.3-0.3-0.3-0.6-0.5c-0.4-0.1-0.8-0.3-1.2-0.9S20.4,5.4,20.4,5c0-0.3,0-0.5-0.2-0.7
		C20,4,19.8,4.1,19.5,4.1c-0.4,0-0.9,0-1.5-0.3c-0.6-0.4-0.7-0.9-0.9-1.2C17,2.1,17,2,16.7,1.9c-0.3-0.1-0.5,0-0.8,0.1
		c-0.3,0.2-0.8,0.4-1.5,0.2c-0.7-0.1-1-0.5-1.3-0.8c-0.2-0.3-0.3-0.4-0.7-0.4s-0.4,0.1-0.6,0.4c-0.2,0.3-0.6,0.6-1.3,0.8
		C10,2.4,9.5,2.2,9.2,2C8.9,1.9,8.7,1.8,8.4,1.9C8.1,2,8.1,2.2,8,2.5C7.8,2.9,7.7,3.3,7.1,3.7S6,4.1,5.7,4.1c-0.3,0-0.5,0-0.7,0.2
		C4.7,4.5,4.7,4.7,4.7,5c0,0.4,0,0.9-0.3,1.4C4,7,3.5,7.2,3.2,7.3C2.9,7.4,2.7,7.5,2.6,7.8C2.5,8.1,2.5,8.2,2.7,8.5
		C2.8,8.9,3,9.3,2.9,10s-0.5,1-0.8,1.3c-0.2,0.2-0.4,0.3-0.4,0.6s0.1,0.4,0.4,0.6c0.3,0.2,0.7,0.6,0.8,1.3C3,14.5,2.8,15,2.7,15.3
		c-0.1,0.3-0.2,0.4-0.1,0.7c0.1,0.3,0.3,0.4,0.6,0.5c0.3,0.1,0.8,0.3,1.2,0.9c0.4,0.6,0.4,1.1,0.3,1.5c0,0.3,0,0.5,0.2,0.7
		s0.4,0.2,0.7,0.2c0.4,0,0.9,0,1.4,0.3C7.7,20.5,7.9,21,8,21.3c0.1,0.3,0.2,0.5,0.5,0.6C8.8,22,8.9,22,9.2,21.8
		C9.4,21.7,9.8,21.5,10.2,21.5z"/>
</g>
</svg>
