<?xml version="1.0" encoding="utf-8"?>
<!-- Generator: Adobe Illustrator 28.2.0, SVG Export Plug-In . SVG Version: 6.00 Build 0)  -->
<svg version="1.1" id="Camada_1" xmlns="http://www.w3.org/2000/svg" xmlns:xlink="http://www.w3.org/1999/xlink" x="0px" y="0px"
	 viewBox="0 0 31.4 39.2" style="enable-background:new 0 0 31.4 39.2;" xml:space="preserve">
<g id="Layer_1_00000091003833764825320870000006103419488931473297_">
</g>
<g id="Layer_1_00000067221263198673404260000003084955034545633416_">
</g>
<g id="Layer_1_00000026862526201671360860000018171181689657282955_">
</g>
<g id="Layer_1_00000134245345943663331790000010026281737358166923_">
</g>
<g>
	<path d="M15.8,16.3c2,0,3.6-1.6,3.6-3.5s-1.6-3.5-3.6-3.5s-3.6,1.6-3.6,3.5S13.9,16.3,15.8,16.3z M15.8,10.8c1.1,0,1.9,0.9,1.9,1.9
		c0,1.1-0.9,1.9-1.9,1.9c-1.1,0-1.9-0.9-1.9-1.9S14.8,10.8,15.8,10.8z"/>
	<path d="M13.8,19.2l0.4,1.8c0.1,0.4,0.4,0.7,0.8,0.7h1.6c0.4,0,0.7-0.3,0.8-0.7l0.4-1.8c0.4-0.1,0.8-0.3,1.1-0.5l1.6,1
		c0.3,0.2,0.7,0.1,1.1-0.1l1.1-1.1c0.3-0.3,0.3-0.7,0.1-1.1l-1-1.6c0.2-0.4,0.3-0.7,0.5-1.1l1.8-0.4c0.4-0.1,0.7-0.4,0.7-0.8V12
		c0-0.4-0.3-0.7-0.7-0.8l-1.8-0.4c-0.1-0.4-0.3-0.8-0.5-1.1l1-1.6C23.1,7.7,23,7.3,22.7,7l-1.1-1.1c-0.3-0.3-0.7-0.3-1.1-0.1l-1.6,1
		c-0.3-0.2-0.7-0.3-1.1-0.5l-0.3-1.9C17.4,4,17,3.8,16.6,3.8h-1.6c-0.4,0-0.7,0.3-0.8,0.7l-0.4,1.8c-0.4,0.1-0.8,0.3-1.1,0.5l-1.6-1
		c-0.3-0.2-0.7-0.1-1.1,0.1L8.9,6.9C8.7,7.2,8.6,7.6,8.8,8l1,1.6c-0.2,0.4-0.3,0.7-0.5,1.1l-1.8,0.4c-0.4,0.1-0.7,0.4-0.7,0.8v1.5
		c0,0.4,0.3,0.7,0.7,0.8l1.8,0.4c0.1,0.4,0.3,0.8,0.5,1.1l-1,1.6c-0.2,0.3-0.1,0.7,0.1,1.1l1.1,1.1c0.3,0.3,0.7,0.3,1.1,0.1l1.6-1
		C13.1,18.9,13.4,19,13.8,19.2z M12.2,17l-1.5,0.9l-0.1-0.1l0.9-1.5c0.2-0.3,0.2-0.6,0-0.9c-0.3-0.5-0.5-1.1-0.7-1.6
		c-0.1-0.3-0.3-0.5-0.6-0.6l-1.7-0.4v-0.2l1.7-0.4c0.3-0.1,0.5-0.3,0.6-0.6c0.1-0.6,0.3-1.1,0.7-1.6c0.2-0.3,0.2-0.6,0-0.9l-0.9-1.5
		l0.1-0.1l1.5,0.9c0.3,0.2,0.6,0.2,0.9,0c0.5-0.3,1-0.5,1.6-0.7c0.3-0.1,0.5-0.3,0.6-0.6l0.4-1.7h0.2l0.4,1.7
		c0.1,0.3,0.3,0.5,0.6,0.6c0.6,0.1,1.1,0.3,1.6,0.7c0.3,0.2,0.6,0.2,0.9,0l1.5-0.9L21,7.7l-1,1.5c-0.2,0.3-0.2,0.6,0,0.9
		c0.3,0.5,0.5,1.1,0.7,1.6c0.1,0.3,0.3,0.5,0.6,0.6l1.7,0.4v0.2l-1.6,0.3c-0.3,0.1-0.5,0.3-0.6,0.6c-0.1,0.6-0.3,1.1-0.7,1.6
		c-0.2,0.3-0.2,0.6,0,0.9l1,1.5L21,17.9l-1.5-0.8c-0.3-0.2-0.6-0.2-0.9,0c-0.5,0.3-1.1,0.5-1.6,0.7c-0.3,0.1-0.5,0.3-0.6,0.6L16,20
		h-0.2l-0.4-1.7c-0.1-0.3-0.3-0.5-0.6-0.6c-0.6-0.1-1.1-0.3-1.6-0.7C12.8,16.9,12.4,16.9,12.2,17z"/>
	<path d="M30.5,37.6h-10c0.5-0.7,0.7-1.5,0.7-2.3v-1l0,0c1.4,0,2.6-1.2,2.6-2.7c0-1.3-0.9-2.3-2-2.5c0.4-2.9,1.7-5.8,3.5-7.9
		c2-2.3,3-5.3,3-8.4C28.3,5.9,22.9,0,15.9,0h-0.1C8.9-0.1,3.2,5.8,3.2,12.8c0,3.1,1.1,6,3,8.3c1.7,2,3,4.9,3.4,7.9
		c-1.2,0.2-2.1,1.3-2.1,2.5c0,1.5,1.2,2.7,2.6,2.7l0,0v1c0,0.9,0.3,1.7,0.7,2.3H0.9c-0.5,0-0.9,0.4-0.9,0.9c0,0.5,0.4,0.9,0.9,0.9
		c1.3,0,28.3,0,29.6,0c0.5,0,0.9-0.4,0.9-0.9C31.3,37.9,30.9,37.6,30.5,37.6z M7.5,20c-1.7-2-2.6-4.6-2.6-7.2
		c0-6.1,4.9-11.1,10.8-11.1h0.1c5.9,0.1,10.7,5,10.7,11.2c0,2.7-1,5.3-2.6,7.3c-0.1,0.2-0.3,0.3-0.4,0.5c-1.8,2.3-3,5.2-3.5,8.4
		h-8.7c-0.4-3.1-1.6-6-3.3-8.3C7.8,20.4,7.6,20.2,7.5,20z M14.2,37.6c-1.4,0-2.4-1-2.4-2.3v-1.9c0-0.5-0.3-0.8-0.8-0.8h-0.9
		c-0.5,0-0.9-0.5-0.9-1c0-0.5,0.4-0.9,0.9-0.9c1.1,0,9.3,0,11.2,0c0.5,0,0.9,0.4,0.9,0.9c0,0.5-0.4,1-0.9,1c-1.8,0-3.3,0-5.1,0
		c-0.5,0-0.9,0.4-0.9,0.9c0,0.5,0.4,0.9,0.9,0.9h3.5v1c0,1.3-1,2.3-2.4,2.3L14.2,37.6L14.2,37.6z"/>
</g>
</svg>
