<?xml version="1.0" encoding="utf-8"?>
<!-- Generator: Adobe Illustrator 28.2.0, SVG Export Plug-In . SVG Version: 6.00 Build 0)  -->
<svg version="1.1" id="Camada_1" xmlns="http://www.w3.org/2000/svg" xmlns:xlink="http://www.w3.org/1999/xlink" x="0px" y="0px"
	 viewBox="0 0 36.5 36.2" style="enable-background:new 0 0 36.5 36.2;" xml:space="preserve">
<g id="Layer_1_00000091003833764825320870000006103419488931473297_">
</g>
<g id="Layer_1_00000067221263198673404260000003084955034545633416_">
</g>
<g id="Layer_1_00000026862526201671360860000018171181689657282955_">
</g>
<g id="Layer_1_00000134245345943663331790000010026281737358166923_">
</g>
<g>
	<g id="_x32_07_x2C__Bottle_x2C__Drink_x2C__Food_x2C__Juice_x2C__Milk_00000009571395118456385950000001544533452503364495_">
		<g>
			<path d="M16.8,10.5c-1.3,0-2.3,1-2.3,2.3s1,2.3,2.3,2.3s2.3-1,2.3-2.3S18.1,10.5,16.8,10.5z M16.8,13.5c-0.4,0-0.8-0.4-0.8-0.8
				s0.4-0.8,0.8-0.8c0.4,0,0.8,0.4,0.8,0.8C17.6,13.2,17.2,13.5,16.8,13.5z"/>
			<path d="M35.8,34.6h-1.5c0-18.5,0-17.2,0-17.4c0-0.2,0.1,0.2-3.8-9.1V0.8c0-0.4-0.4-0.8-0.8-0.8H6.9C6.5,0,6.1,0.4,6.1,0.8v7.4
				c-4.1,9.6-3.8,8.9-3.8,9.2v17.2H0.8C0.4,34.6,0,35,0,35.4s0.4,0.8,0.8,0.8c4.7,0,30.3,0,35,0c0.4,0,0.8-0.4,0.8-0.8
				C36.5,35,36.2,34.6,35.8,34.6z M3.9,18h21.3v3H3.9V18z M29.7,10.2l2.7,6.3h-5.4L29.7,10.2z M26.7,18h6.1v3h-6.1V18z M7.7,1.5
				h21.3v6H7.7V1.5z M7.4,9h21.2l-3.2,7.5H4.3L7.4,9z M3.9,31.6h7.6c0.4,0,0.8-0.4,0.8-0.8S11.9,30,11.5,30H3.9v-2.3h11.4
				c0.4,0,0.8-0.4,0.8-0.8s-0.4-0.8-0.8-0.8H3.9v-3.8h21.3v12H3.9V31.6z M26.7,34.6v-12h6.1v12H26.7L26.7,34.6z"/>
		</g>
	</g>
	<g id="Layer_1_00000093159289703338417140000006021412729660928648_">
	</g>
</g>
</svg>
