<?xml version="1.0" encoding="utf-8"?>
<!-- Generator: Adobe Illustrator 28.2.0, SVG Export Plug-In . SVG Version: 6.00 Build 0)  -->
<svg version="1.1" id="Camada_1" xmlns="http://www.w3.org/2000/svg" xmlns:xlink="http://www.w3.org/1999/xlink" x="0px" y="0px"
	 viewBox="0 0 26.2 38.7" style="enable-background:new 0 0 26.2 38.7;" xml:space="preserve">
<style type="text/css">
	.st0{fill:#1D1D1B;}
</style>
<g id="Layer_1_00000091003833764825320870000006103419488931473297_">
</g>
<g id="Layer_1_00000067221263198673404260000003084955034545633416_">
</g>
<g id="Layer_1_00000026862526201671360860000018171181689657282955_">
</g>
<g id="Layer_1_00000134245345943663331790000010026281737358166923_">
</g>
<g>
	<path class="st0" d="M2.1,11.6h7.4c1.2,0,2.1-0.9,2.1-2.1V2.1c0-1.2-0.9-2.1-2.1-2.1H2.1C0.9,0,0,0.9,0,2.1v7.4
		C0,10.7,0.9,11.6,2.1,11.6z M1.6,9.5V2.1c0-0.3,0.2-0.5,0.5-0.5h7.4c0.3,0,0.5,0.2,0.5,0.5v7.4C10,9.8,9.8,10,9.5,10H2.1
		C1.8,10,1.6,9.8,1.6,9.5z"/>
	<polygon class="st0" points="9.6,4.1 8.5,3 4.8,6.8 3.1,5.1 2,6.2 4.8,9 	"/>
	<path class="st0" d="M2.1,25.1h7.4c1.2,0,2.1-1,2.1-2.1v-7.4c0-1.2-0.9-2.1-2.1-2.1H2.1c-1.2,0-2.1,0.9-2.1,2.1V23
		C0,24.2,0.9,25.1,2.1,25.1z M1.6,23v-7.4c0-0.3,0.2-0.5,0.5-0.5h7.4c0.3,0,0.5,0.2,0.5,0.5V23c0,0.3-0.2,0.5-0.5,0.5H2.1
		C1.8,23.6,1.6,23.3,1.6,23z"/>
	<polygon class="st0" points="9.6,17.7 8.5,16.5 4.8,20.3 3.1,18.6 2,19.7 4.8,22.5 	"/>
	<path class="st0" d="M25.4,15c-0.5-0.5-1.1-0.8-1.8-0.8c-0.7,0-1.3,0.3-1.8,0.8L21,15.8l0,0l-5.4,5.4l0,0l-5.8,5.8
		c-0.1,0-0.1,0-0.2,0H2.1c-1.2,0-2.1,1-2.1,2.1v7.4c0,1.2,0.9,2.1,2.1,2.1h7.4c1.2,0,2.1-1,2.1-2.1v-4.1l7.5-7.5l0.6-0.6l3-3v0.8
		l-4.3,4.3c-0.3,0.3-0.3,0.8,0,1.1c0.1,0.1,0.4,0.2,0.6,0.2s0.4-0.1,0.6-0.2l4.8-4.8l0-3.1l0.3-0.3l0.9-0.9c0.5-0.5,0.8-1.1,0.8-1.8
		C26.2,16.1,25.9,15.5,25.4,15z M1.6,29.2c0-0.3,0.2-0.5,0.5-0.5h6.1l-2.5,2.5c-0.1,0.1-0.2,0.2-0.2,0.4l-0.7,3.2
		c-0.1,0.3,0,0.5,0.2,0.7c0.2,0.2,0.3,0.2,0.6,0.2c0.1,0,0.1,0,0.2,0l3.2-0.7c0.1,0,0.3-0.1,0.4-0.2L10,34v2.5
		c0,0.3-0.2,0.5-0.5,0.5H2.1c-0.3,0-0.5-0.2-0.5-0.5L1.6,29.2L1.6,29.2z M8.4,33.4l-1.8,0.4L7,32l9.6-9.6l1.4,1.4L8.4,33.4z
		 M17.8,21.3l3.2-3.2l1.4,1.4l-3.2,3.2L17.8,21.3z M22.1,17l0.9-0.9c0.4-0.4,1-0.4,1.4,0c0.4,0.4,0.4,1,0,1.4l-0.9,0.9L22.1,17z"/>
</g>
</svg>
